<svg width="30" height="30" viewBox="0 0 30 30" fill="none" xmlns="http://www.w3.org/2000/svg">
<path d="M6.22877 8.99637C7.73927 8.99637 8.96377 7.77187 8.96377 6.26137C8.96377 4.75087 7.73927 3.52637 6.22877 3.52637C4.71828 3.52637 3.49377 4.75087 3.49377 6.26137C3.49377 7.77187 4.71828 8.99637 6.22877 8.99637Z" fill="black"/>
<path d="M11.5463 11.0688V26.2426H16.2575V18.7388C16.2575 16.7588 16.63 14.8413 19.085 14.8413C21.5063 14.8413 21.5363 17.1051 21.5363 18.8638V26.2438H26.25V17.9226C26.25 13.8351 25.37 10.6938 20.5925 10.6938C18.2988 10.6938 16.7613 11.9526 16.1325 13.1438H16.0688V11.0688H11.5463ZM3.86877 11.0688H8.58752V26.2426H3.86877V11.0688Z" fill="black"/>
</svg>
